<svg width="17" height="16" viewBox="0 0 17 16" fill="none" xmlns="http://www.w3.org/2000/svg">
<path d="M2.48438 2.5C2.48438 1.83696 2.74777 1.20107 3.21661 0.732233C3.68545 0.263392 4.32134 0 4.98438 0L13.7344 0C13.9333 0 14.1241 0.0790176 14.2647 0.21967C14.4054 0.360322 14.4844 0.551088 14.4844 0.75V13.25C14.4844 13.4489 14.4054 13.6397 14.2647 13.7803C14.1241 13.921 13.9333 14 13.7344 14H11.2344C11.0355 14 10.8447 13.921 10.704 13.7803C10.5634 13.6397 10.4844 13.4489 10.4844 13.25C10.4844 13.0511 10.5634 12.8603 10.704 12.7197C10.8447 12.579 11.0355 12.5 11.2344 12.5H12.9844V10.5H4.98438C4.78746 10.5 4.59493 10.5582 4.43094 10.6672C4.26695 10.7762 4.13879 10.9312 4.06254 11.1128C3.98628 11.2943 3.96533 11.4943 4.00231 11.6878C4.03928 11.8812 4.13253 12.0594 4.27038 12.2C4.33932 12.2704 4.39373 12.3537 4.43048 12.4451C4.46724 12.5365 4.48564 12.6343 4.48462 12.7328C4.4836 12.8313 4.46318 12.9287 4.42453 13.0193C4.38588 13.1099 4.32977 13.1921 4.25938 13.261C4.18899 13.3299 4.10571 13.3843 4.01429 13.4211C3.92288 13.4579 3.82512 13.4763 3.7266 13.4752C3.62808 13.4742 3.53072 13.4538 3.44009 13.4152C3.34945 13.3765 3.26732 13.3204 3.19838 13.25C2.74009 12.7829 2.48367 12.1544 2.48438 11.5V2.5ZM12.9844 1.5H4.98438C4.71916 1.5 4.46481 1.60536 4.27727 1.79289C4.08973 1.98043 3.98438 2.23478 3.98438 2.5V9.208C4.29972 9.0702 4.64024 8.99937 4.98438 9H12.9844V1.5ZM5.48438 12.25C5.48438 12.1837 5.51072 12.1201 5.5576 12.0732C5.60448 12.0263 5.66807 12 5.73438 12H9.23438C9.30068 12 9.36427 12.0263 9.41115 12.0732C9.45804 12.1201 9.48438 12.1837 9.48438 12.25V15.5C9.48438 15.5464 9.47145 15.5919 9.44704 15.6314C9.42263 15.6709 9.38771 15.7028 9.34618 15.7236C9.30465 15.7444 9.25817 15.7532 9.21193 15.749C9.16568 15.7448 9.12152 15.7279 9.08438 15.7L7.63438 14.613C7.59117 14.5804 7.53851 14.5627 7.48438 14.5627C7.43024 14.5627 7.37758 14.5804 7.33438 14.613L5.88438 15.7C5.84723 15.7279 5.80307 15.7448 5.75683 15.749C5.71059 15.7532 5.6641 15.7444 5.62257 15.7236C5.58105 15.7028 5.54612 15.6709 5.52171 15.6314C5.49731 15.5919 5.48438 15.5464 5.48438 15.5V12.25Z" fill="#8B949E"/>
</svg>
