<svg width="17" height="16" viewBox="0 0 17 16" fill="none" xmlns="http://www.w3.org/2000/svg">
<path d="M0.5 1.75C0.5 1.55109 0.579018 1.36033 0.71967 1.21967C0.860322 1.07902 1.05109 1 1.25 1H5.503C6.73 1 7.82 1.59 8.503 2.501C8.85212 2.03428 9.30542 1.65553 9.82677 1.39494C10.3481 1.13434 10.9231 0.999109 11.506 1H15.751C15.9499 1 16.1407 1.07902 16.2813 1.21967C16.422 1.36033 16.501 1.55109 16.501 1.75V12.25C16.501 12.4489 16.422 12.6397 16.2813 12.7803C16.1407 12.921 15.9499 13 15.751 13H11.244C10.9485 13 10.6559 13.0582 10.383 13.1713C10.11 13.2843 9.86193 13.4501 9.653 13.659L9.031 14.28C8.89038 14.4205 8.69975 14.4993 8.501 14.4993C8.30225 14.4993 8.11163 14.4205 7.971 14.28L7.349 13.659C7.14007 13.4501 6.89203 13.2843 6.61904 13.1713C6.34606 13.0582 6.05347 13 5.758 13H1.25C1.05109 13 0.860322 12.921 0.71967 12.7803C0.579018 12.6397 0.5 12.4489 0.5 12.25V1.75ZM7.751 12.074L7.755 7.001L7.753 4.748C7.75247 4.15161 7.51518 3.57983 7.09328 3.15831C6.67138 2.73678 6.09939 2.5 5.503 2.5H2V11.5H5.757C6.46243 11.5 7.15355 11.6989 7.751 12.074ZM9.255 4.75L9.251 12.072C9.84813 11.6981 10.5385 11.4999 11.243 11.5H15V2.5H11.505C10.9083 2.5 10.336 2.73706 9.91401 3.15901C9.49205 3.58097 9.255 4.15327 9.255 4.75Z" fill="#8B949E"/>
</svg>
