<svg width="17" height="16" viewBox="0 0 17 16" fill="none" xmlns="http://www.w3.org/2000/svg">
<path d="M0.53125 1.75C0.53125 0.784 1.31525 0 2.28125 0H14.7812C15.7472 0 16.5312 0.784 16.5312 1.75V14.25C16.5312 14.7141 16.3469 15.1592 16.0187 15.4874C15.6905 15.8156 15.2454 16 14.7812 16H2.28125C1.81712 16 1.372 15.8156 1.04381 15.4874C0.715624 15.1592 0.53125 14.7141 0.53125 14.25V1.75ZM7.03125 6.5V14.5H14.7812C14.8476 14.5 14.9111 14.4737 14.958 14.4268C15.0049 14.3799 15.0312 14.3163 15.0312 14.25V6.5H7.03125ZM15.0312 5V1.75C15.0312 1.6837 15.0049 1.62011 14.958 1.57322C14.9111 1.52634 14.8476 1.5 14.7812 1.5H7.03125V5H15.0312ZM2.03125 6.5V14.25C2.03125 14.388 2.14325 14.5 2.28125 14.5H5.53125V6.5H2.03125ZM5.53125 5V1.5H2.28125C2.21495 1.5 2.15136 1.52634 2.10447 1.57322C2.05759 1.62011 2.03125 1.6837 2.03125 1.75V5H5.53125Z" fill="#8B949E"/>
</svg>
