<svg width="17" height="16" viewBox="0 0 17 16" fill="none" xmlns="http://www.w3.org/2000/svg">
<path d="M9.34675 0.392014L14.5968 3.43701C15.1368 3.75101 15.4688 4.32701 15.4688 4.95101V11.049C15.4688 11.3556 15.3882 11.6569 15.2352 11.9226C15.0822 12.1883 14.862 12.4092 14.5968 12.563L9.34675 15.608C9.08 15.7627 8.77711 15.8442 8.46875 15.8442C8.16039 15.8442 7.8575 15.7627 7.59075 15.608L2.34075 12.563C2.0755 12.4092 1.85533 12.1883 1.70229 11.9226C1.54925 11.6569 1.46872 11.3556 1.46875 11.049V4.95101C1.46875 4.32701 1.80075 3.75001 2.34075 3.43701L7.59075 0.392014C7.8575 0.237303 8.16039 0.155823 8.46875 0.155823C8.77711 0.155823 9.08 0.237303 9.34675 0.392014ZM8.34375 1.69001L3.71375 4.37501L8.46875 7.13301L13.2238 4.37501L8.59375 1.69001C8.55581 1.66787 8.51268 1.65621 8.46875 1.65621C8.42482 1.65621 8.38169 1.66787 8.34375 1.69001ZM2.96875 5.67701V11.049C2.96875 11.139 3.01575 11.22 3.09375 11.265L7.71875 13.948V8.43201L2.96875 5.67701ZM9.21875 13.948L13.8438 11.265C13.8817 11.2431 13.9132 11.2116 13.9351 11.1737C13.9571 11.1358 13.9687 11.0928 13.9688 11.049V5.67701L9.21875 8.43201V13.948Z" fill="#8B949E"/>
</svg>
